<?xml version="1.0" encoding="UTF-8"?>
<!DOCTYPE svg PUBLIC "-//W3C//DTD SVG 1.1//EN" "http://www.w3.org/Graphics/SVG/1.1/DTD/svg11.dtd">
<svg xmlns="http://www.w3.org/2000/svg" version="1.1" width="512px" height="512px" style="shape-rendering:geometricPrecision; text-rendering:geometricPrecision; image-rendering:optimizeQuality; fill-rule:evenodd; clip-rule:evenodd" xmlns:xlink="http://www.w3.org/1999/xlink">
<g><path style="opacity:0.993" fill="#000000" d="M 19.5,-0.5 C 149.833,-0.5 280.167,-0.5 410.5,-0.5C 419.752,2.91746 426.252,9.25079 430,18.5C 431.567,31.4519 431.9,44.4519 431,57.5C 430.097,61.531 427.597,63.531 423.5,63.5C 420.042,62.8923 417.542,60.8923 416,57.5C 415.961,45.0712 415.294,32.7379 414,20.5C 412.062,17.8941 409.562,16.0608 406.5,15C 399.842,14.5004 393.175,14.3337 386.5,14.5C 265.5,14.3333 144.5,14.5 23.5,15C 19.3333,16.5 16.5,19.3333 15,23.5C 14.6667,140.833 14.3333,258.167 14,375.5C 12.646,379.076 10.146,381.076 6.5,381.5C 3.70516,380.937 1.37183,379.604 -0.5,377.5C -0.5,258.167 -0.5,138.833 -0.5,19.5C 3.16667,9.83333 9.83333,3.16667 19.5,-0.5 Z"/></g>
<g><path style="opacity:1" fill="#eaf2fd" d="M 386.5,14.5 C 387.907,16.3083 389.074,18.3083 390,20.5C 390.5,30.4944 390.666,40.4944 390.5,50.5C 386.752,47.2925 382.418,45.1258 377.5,44C 268.833,43.3333 160.167,43.3333 51.5,44C 41.5069,47.9933 35.0069,55.16 32,65.5C 31.3333,103.5 31.3333,141.5 32,179.5C 34.2838,191.784 41.4505,199.618 53.5,203C 161.167,203.667 268.833,203.667 376.5,203C 381.139,201.347 385.472,199.181 389.5,196.5C 390.333,289.666 390.833,382.999 391,476.5C 392.008,484.049 394.842,490.716 399.5,496.5C 279.833,496.667 160.166,496.5 40.5,496C 27.3246,492.158 18.8246,483.658 15,470.5C 14.6667,448.833 14.3333,427.167 14,405.5C 12.1642,402.676 9.66418,401.01 6.5,400.5C 6.5,394.167 6.5,387.833 6.5,381.5C 10.146,381.076 12.646,379.076 14,375.5C 14.3333,258.167 14.6667,140.833 15,23.5C 16.5,19.3333 19.3333,16.5 23.5,15C 144.5,14.5 265.5,14.3333 386.5,14.5 Z"/></g>
<g><path style="opacity:1" fill="#dce9fa" d="M 386.5,14.5 C 393.175,14.3337 399.842,14.5004 406.5,15C 409.562,16.0608 412.062,17.8941 414,20.5C 415.294,32.7379 415.961,45.0712 416,57.5C 417.542,60.8923 420.042,62.8923 423.5,63.5C 423.5,69.8333 423.5,76.1667 423.5,82.5C 420.413,83.053 417.913,84.7197 416,87.5C 415.333,214.833 415.333,342.167 416,469.5C 417.362,479.722 421.529,488.555 428.5,496C 418.839,496.5 409.172,496.666 399.5,496.5C 394.842,490.716 392.008,484.049 391,476.5C 390.833,382.999 390.333,289.666 389.5,196.5C 393.906,191.687 396.74,186.02 398,179.5C 398.667,141.167 398.667,102.833 398,64.5C 396.265,59.3606 393.765,54.694 390.5,50.5C 390.666,40.4944 390.5,30.4944 390,20.5C 389.074,18.3083 387.907,16.3083 386.5,14.5 Z"/></g>
<g><path style="opacity:1" fill="#020202" d="M 390.5,50.5 C 393.765,54.694 396.265,59.3606 398,64.5C 398.667,102.833 398.667,141.167 398,179.5C 396.74,186.02 393.906,191.687 389.5,196.5C 385.472,199.181 381.139,201.347 376.5,203C 268.833,203.667 161.167,203.667 53.5,203C 41.4505,199.618 34.2838,191.784 32,179.5C 31.3333,141.5 31.3333,103.5 32,65.5C 35.0069,55.16 41.5069,47.9933 51.5,44C 160.167,43.3333 268.833,43.3333 377.5,44C 382.418,45.1258 386.752,47.2925 390.5,50.5 Z"/></g>
<g><path style="opacity:1" fill="#fadc7a" d="M 373.5,58.5 C 370.15,58.335 366.817,58.5017 363.5,59C 365.041,60.5793 366.208,62.4127 367,64.5C 367.667,102.833 367.667,141.167 367,179.5C 366.625,182 365.792,184.333 364.5,186.5C 367.768,187.487 371.102,187.82 374.5,187.5C 268.334,188.666 162.001,188.833 55.5,188C 50.9378,186.373 48.1045,183.206 47,178.5C 46.3333,141.5 46.3333,104.5 47,67.5C 48.8333,63 52,59.8333 56.5,58C 162.334,57.1675 268.001,57.3341 373.5,58.5 Z"/></g>
<g><path style="opacity:1" fill="#fcce63" d="M 373.5,58.5 C 377.702,59.8633 380.869,62.5299 383,66.5C 383.667,104.167 383.667,141.833 383,179.5C 381.587,183.748 378.754,186.415 374.5,187.5C 371.102,187.82 367.768,187.487 364.5,186.5C 365.792,184.333 366.625,182 367,179.5C 367.667,141.167 367.667,102.833 367,64.5C 366.208,62.4127 365.041,60.5793 363.5,59C 366.817,58.5017 370.15,58.335 373.5,58.5 Z"/></g>
<g><path style="opacity:1" fill="#050402" d="M 101.5,75.5 C 135.021,73.5363 154.354,89.0363 159.5,122C 159.003,132.323 156.003,141.823 150.5,150.5C 153.521,153.686 156.354,157.02 159,160.5C 159.671,168.159 156.171,171.326 148.5,170C 145.651,166.984 142.651,164.15 139.5,161.5C 127.746,169.619 114.746,172.452 100.5,170C 73.6494,160.826 61.4827,141.993 64,113.5C 69.3576,93.6431 81.8576,80.9764 101.5,75.5 Z"/></g>
<g><path style="opacity:1" fill="#070603" d="M 183.5,75.5 C 188.28,74.6409 191.78,76.3075 194,80.5C 194.032,102.564 194.699,124.564 196,146.5C 204.956,157.35 215.456,159.184 227.5,152C 230.762,149.408 233.262,146.241 235,142.5C 235.333,121.5 235.667,100.5 236,79.5C 239.958,74.5639 244.291,74.2305 249,78.5C 250.644,99.7444 250.977,121.078 250,142.5C 246.946,157.221 238.113,166.387 223.5,170C 202.738,173.538 188.238,165.705 180,146.5C 179.333,124.167 179.333,101.833 180,79.5C 180.69,77.6498 181.856,76.3164 183.5,75.5 Z"/></g>
<g><path style="opacity:1" fill="#010000" d="M 272.5,75.5 C 276.684,74.7036 279.85,76.037 282,79.5C 282.667,108.833 282.667,138.167 282,167.5C 277.667,171.5 273.333,171.5 269,167.5C 268.333,138.167 268.333,108.833 269,79.5C 269.69,77.6498 270.856,76.3164 272.5,75.5 Z"/></g>
<g><path style="opacity:1" fill="#060502" d="M 320.5,154.5 C 319.957,154.56 319.624,154.893 319.5,155.5C 333.484,156.499 347.484,156.833 361.5,156.5C 366.574,159.202 367.741,163.202 365,168.5C 364.097,169.701 362.931,170.535 361.5,171C 342.167,171.667 322.833,171.667 303.5,171C 298.776,168.565 297.276,164.731 299,159.5C 313.663,136.681 328.496,114.014 343.5,91.5C 344.043,91.44 344.376,91.1067 344.5,90.5C 331.183,89.5008 317.85,89.1675 304.5,89.5C 298.319,85.549 297.986,81.049 303.5,76C 322.5,75.3333 341.5,75.3333 360.5,76C 365.626,78.553 366.793,82.3864 364,87.5C 349.49,109.862 334.99,132.195 320.5,154.5 Z"/></g>
<g><path style="opacity:0.989" fill="#010101" d="M 423.5,82.5 C 427.597,82.469 430.097,84.469 431,88.5C 431.5,109.831 431.667,131.164 431.5,152.5C 452.212,152.059 472.879,152.559 493.5,154C 502.837,157.567 508.837,164.067 511.5,173.5C 511.5,230.5 511.5,287.5 511.5,344.5C 509.628,346.604 507.295,347.937 504.5,348.5C 500.756,348.046 498.256,346.046 497,342.5C 496.667,287.167 496.333,231.833 496,176.5C 493.869,172.53 490.702,169.863 486.5,168.5C 468.007,167.503 449.341,167.17 430.5,167.5C 430.167,267.668 430.501,367.668 431.5,467.5C 435.246,488.049 447.579,497.549 468.5,496C 482.796,493.038 491.963,484.538 496,470.5C 496.333,437.833 496.667,405.167 497,372.5C 498.746,369.71 501.246,368.043 504.5,367.5C 507.303,367.961 509.637,369.295 511.5,371.5C 511.5,405.5 511.5,439.5 511.5,473.5C 505.833,493.167 493.167,505.833 473.5,511.5C 328.167,511.5 182.833,511.5 37.5,511.5C 17.8333,505.833 5.16667,493.167 -0.5,473.5C -0.5,450.5 -0.5,427.5 -0.5,404.5C 1.34032,402.331 3.67365,400.998 6.5,400.5C 9.66418,401.01 12.1642,402.676 14,405.5C 14.3333,427.167 14.6667,448.833 15,470.5C 18.8246,483.658 27.3246,492.158 40.5,496C 160.166,496.5 279.833,496.667 399.5,496.5C 409.172,496.666 418.839,496.5 428.5,496C 421.529,488.555 417.362,479.722 416,469.5C 415.333,342.167 415.333,214.833 416,87.5C 417.913,84.7197 420.413,83.053 423.5,82.5 Z"/></g>
<g><path style="opacity:1" fill="#453d21" d="M 304.5,89.5 C 317.85,89.1675 331.183,89.5008 344.5,90.5C 344.376,91.1067 344.043,91.44 343.5,91.5C 330.5,90.8333 317.5,90.1667 304.5,89.5 Z"/></g>
<g><path style="opacity:1" fill="#fbdd7b" d="M 103.5,90.5 C 130.146,89.3159 143.646,101.983 144,128.5C 143.041,132.414 141.541,136.081 139.5,139.5C 136.314,136.479 132.98,133.646 129.5,131C 125.102,129.622 121.602,130.788 119,134.5C 118.294,136.971 118.627,139.305 120,141.5C 123.016,144.349 125.85,147.349 128.5,150.5C 126.997,152.422 124.997,153.588 122.5,154C 100.879,159.109 86.3789,151.276 79,130.5C 76.7612,110.623 84.9278,97.2893 103.5,90.5 Z"/></g>
<g><path style="opacity:1" fill="#99864b" d="M 320.5,154.5 C 334.167,155.167 347.833,155.833 361.5,156.5C 347.484,156.833 333.484,156.499 319.5,155.5C 319.624,154.893 319.957,154.56 320.5,154.5 Z"/></g>
<g><path style="opacity:1" fill="#87ad77" d="M 486.5,168.5 C 468.167,168.5 449.833,168.5 431.5,168.5C 431.5,268.167 431.5,367.833 431.5,467.5C 430.501,367.668 430.167,267.668 430.5,167.5C 449.341,167.17 468.007,167.503 486.5,168.5 Z"/></g>
<g><path style="opacity:1" fill="#b2e49e" d="M 486.5,168.5 C 490.702,169.863 493.869,172.53 496,176.5C 496.333,231.833 496.667,287.167 497,342.5C 498.256,346.046 500.756,348.046 504.5,348.5C 504.5,354.833 504.5,361.167 504.5,367.5C 501.246,368.043 498.746,369.71 497,372.5C 496.667,405.167 496.333,437.833 496,470.5C 491.963,484.538 482.796,493.038 468.5,496C 447.579,497.549 435.246,488.049 431.5,467.5C 431.5,367.833 431.5,268.167 431.5,168.5C 449.833,168.5 468.167,168.5 486.5,168.5 Z"/></g>
<g><path style="opacity:1" fill="#070707" d="M 37.5,236.5 C 57.5028,236.333 77.5028,236.5 97.5,237C 99.9393,237.774 101.773,239.274 103,241.5C 103.954,257.567 103.621,273.567 102,289.5C 100.581,290.46 99.0806,291.293 97.5,292C 77.1667,292.667 56.8333,292.667 36.5,292C 34.6217,290.457 33.1217,288.624 32,286.5C 31.3333,271.833 31.3333,257.167 32,242.5C 33.3597,239.977 35.193,237.977 37.5,236.5 Z"/></g>
<g><path style="opacity:1" fill="#0a0a0b" d="M 134.5,236.5 C 143.506,236.334 152.506,236.5 161.5,237C 166.224,239.435 167.724,243.269 166,248.5C 165.097,249.701 163.931,250.535 162.5,251C 152.5,251.667 142.5,251.667 132.5,251C 126.947,245.366 127.613,240.533 134.5,236.5 Z"/></g>
<g><path style="opacity:1" fill="#09090a" d="M 192.5,236.5 C 241.834,236.333 291.168,236.5 340.5,237C 345.535,240.013 346.702,244.18 344,249.5C 343.25,250.126 342.416,250.626 341.5,251C 291.5,251.667 241.5,251.667 191.5,251C 186.068,245.761 186.401,240.928 192.5,236.5 Z"/></g>
<g><path style="opacity:1" fill="#884765" d="M 88.5,252.5 C 88.1667,252.5 87.8333,252.5 87.5,252.5C 74.1667,252.5 60.8333,252.5 47.5,252.5C 47.5,260.5 47.5,268.5 47.5,276.5C 47.5,276.833 47.5,277.167 47.5,277.5C 46.507,269.016 46.1736,260.349 46.5,251.5C 60.6766,251.171 74.6766,251.504 88.5,252.5 Z"/></g>
<g><path style="opacity:1" fill="#de75a4" d="M 87.5,252.5 C 87.5,260.5 87.5,268.5 87.5,276.5C 74.1667,276.5 60.8333,276.5 47.5,276.5C 47.5,268.5 47.5,260.5 47.5,252.5C 60.8333,252.5 74.1667,252.5 87.5,252.5 Z"/></g>
<g><path style="opacity:1" fill="#b76088" d="M 87.5,252.5 C 87.8333,252.5 88.1667,252.5 88.5,252.5C 88.5,260.833 88.5,269.167 88.5,277.5C 74.8333,277.5 61.1667,277.5 47.5,277.5C 47.5,277.167 47.5,276.833 47.5,276.5C 60.8333,276.5 74.1667,276.5 87.5,276.5C 87.5,268.5 87.5,260.5 87.5,252.5 Z"/></g>
<g><path style="opacity:1" fill="#050505" d="M 133.5,277.5 C 190.501,277.333 247.501,277.5 304.5,278C 309.626,280.553 310.793,284.386 308,289.5C 306.829,290.893 305.329,291.727 303.5,292C 246.833,292.667 190.167,292.667 133.5,292C 126.866,287.035 126.866,282.202 133.5,277.5 Z"/></g>
<g><path style="opacity:1" fill="#030304" d="M 36.5,309.5 C 57.9,309.034 79.2333,309.534 100.5,311C 101.701,311.903 102.535,313.069 103,314.5C 103.968,330.259 103.635,345.926 102,361.5C 101.167,362.333 100.333,363.167 99.5,364C 78.1667,364.667 56.8333,364.667 35.5,364C 33.9512,362.786 32.7845,361.286 32,359.5C 31.3333,344.5 31.3333,329.5 32,314.5C 33.3657,312.638 34.8657,310.972 36.5,309.5 Z"/></g>
<g><path style="opacity:1" fill="#060606" d="M 133.5,309.5 C 142.839,309.334 152.173,309.5 161.5,310C 166.143,312.072 167.643,315.572 166,320.5C 165.5,322.333 164.333,323.5 162.5,324C 152.833,324.667 143.167,324.667 133.5,324C 130.365,322.734 128.698,320.401 128.5,317C 129.299,313.896 130.966,311.396 133.5,309.5 Z"/></g>
<g><path style="opacity:1" fill="#030303" d="M 192.5,309.5 C 241.834,309.333 291.168,309.5 340.5,310C 346.759,314.167 347.092,318.833 341.5,324C 291.5,324.667 241.5,324.667 191.5,324C 186.003,318.683 186.336,313.85 192.5,309.5 Z"/></g>
<g><path style="opacity:1" fill="#dd74a3" d="M 47.5,324.5 C 61.1667,324.5 74.8333,324.5 88.5,324.5C 88.5,332.833 88.5,341.167 88.5,349.5C 74.8333,349.5 61.1667,349.5 47.5,349.5C 47.5,341.167 47.5,332.833 47.5,324.5 Z"/></g>
<g><path style="opacity:1" fill="#7e415d" d="M 47.5,324.5 C 47.5,332.833 47.5,341.167 47.5,349.5C 61.1667,349.5 74.8333,349.5 88.5,349.5C 74.6766,350.496 60.6766,350.829 46.5,350.5C 46.1736,341.651 46.507,332.984 47.5,324.5 Z"/></g>
<g><path style="opacity:1" fill="#000000" d="M 132.5,350.5 C 190.168,350.333 247.834,350.5 305.5,351C 310.711,355.299 310.711,359.632 305.5,364C 247.833,364.667 190.167,364.667 132.5,364C 127.248,359.506 127.248,355.006 132.5,350.5 Z"/></g>
<g><path style="opacity:1" fill="#040304" d="M 36.5,382.5 C 57.9248,382.022 79.2581,382.522 100.5,384C 101.701,384.903 102.535,386.069 103,387.5C 103.968,403.259 103.635,418.926 102,434.5C 101.097,435.701 99.9308,436.535 98.5,437C 77.0778,437.977 55.7444,437.644 34.5,436C 33.2986,435.097 32.4652,433.931 32,432.5C 31.3333,417.5 31.3333,402.5 32,387.5C 33.025,385.313 34.525,383.646 36.5,382.5 Z"/></g>
<g><path style="opacity:1" fill="#060606" d="M 133.5,382.5 C 143.172,382.334 152.839,382.5 162.5,383C 166.212,385.513 167.378,389.013 166,393.5C 164.786,395.049 163.286,396.215 161.5,397C 152.167,397.667 142.833,397.667 133.5,397C 126.914,392.122 126.914,387.288 133.5,382.5 Z"/></g>
<g><path style="opacity:1" fill="#030303" d="M 191.5,382.5 C 241.501,382.333 291.501,382.5 341.5,383C 347.092,388.167 346.759,392.833 340.5,397C 291.167,397.667 241.833,397.667 192.5,397C 186.292,392.58 185.958,387.747 191.5,382.5 Z"/></g>
<g><path style="opacity:1" fill="#dc73a3" d="M 46.5,397.5 C 60.5,397.5 74.5,397.5 88.5,397.5C 88.5,405.833 88.5,414.167 88.5,422.5C 74.5,422.5 60.5,422.5 46.5,422.5C 46.5,414.167 46.5,405.833 46.5,397.5 Z"/></g>
<g><path style="opacity:1" fill="#060607" d="M 133.5,422.5 C 190.168,422.333 246.834,422.5 303.5,423C 310.626,426.643 311.293,431.309 305.5,437C 248.167,437.667 190.833,437.667 133.5,437C 130.365,435.734 128.698,433.401 128.5,430C 129.546,427.114 131.213,424.614 133.5,422.5 Z"/></g>
</svg>
