<?xml version="1.0" encoding="UTF-8"?>
<!DOCTYPE svg PUBLIC "-//W3C//DTD SVG 1.1//EN" "http://www.w3.org/Graphics/SVG/1.1/DTD/svg11.dtd">
<svg xmlns="http://www.w3.org/2000/svg" version="1.1" width="512px" height="512px" style="shape-rendering:geometricPrecision; text-rendering:geometricPrecision; image-rendering:optimizeQuality; fill-rule:evenodd; clip-rule:evenodd" xmlns:xlink="http://www.w3.org/1999/xlink">
<g><path style="opacity:0.9" fill="#000000" d="M 215.5,22.5 C 218.187,22.3359 220.854,22.5026 223.5,23C 225.333,23.5 226.5,24.6667 227,26.5C 228.608,34.4787 230.108,42.4787 231.5,50.5C 228.177,59.2627 223.01,60.5961 216,54.5C 214.339,46.3656 212.839,38.1989 211.5,30C 211.927,26.9766 213.261,24.4766 215.5,22.5 Z"/></g>
<g><path style="opacity:0.902" fill="#000000" d="M 287.5,22.5 C 294.476,20.8205 298.476,23.4872 299.5,30.5C 298.108,38.5213 296.608,46.5213 295,54.5C 287.99,60.5961 282.823,59.2627 279.5,50.5C 280.892,42.4787 282.392,34.4787 284,26.5C 284.69,24.6498 285.856,23.3164 287.5,22.5 Z"/></g>
<g><path style="opacity:0.903" fill="#000000" d="M 148.5,45.5 C 151.649,45.2114 154.649,45.7114 157.5,47C 162.611,54.5527 166.944,62.5527 170.5,71C 168.808,78.345 164.475,80.6784 157.5,78C 151.584,70.5012 147.25,62.1678 144.5,53C 144.667,51.8333 144.833,50.6667 145,49.5C 146.376,48.2949 147.542,46.9616 148.5,45.5 Z"/></g>
<g><path style="opacity:0.901" fill="#000000" d="M 355.5,45.5 C 363.656,44.8211 367.156,48.4878 366,56.5C 362.922,62.9913 359.588,69.3246 356,75.5C 348.997,81.5974 343.831,80.2641 340.5,71.5C 344.013,61.7858 349.013,53.1192 355.5,45.5 Z"/></g>
<g><path style="opacity:0.9" fill="#000000" d="M 92.5,89.5 C 95.6492,89.2114 98.6492,89.7114 101.5,91C 107.095,96.0508 112.595,101.218 118,106.5C 120.364,116.137 116.531,119.971 106.5,118C 100.365,112.866 94.5313,107.366 89,101.5C 87.0695,96.5497 88.2361,92.5497 92.5,89.5 Z"/></g>
<g><path style="opacity:0.9" fill="#000000" d="M 411.5,89.5 C 421.043,88.5307 424.543,92.5307 422,101.5C 416.469,107.366 410.635,112.866 404.5,118C 394.469,119.971 390.636,116.137 393,106.5C 399.335,100.933 405.502,95.2665 411.5,89.5 Z"/></g>
<g><path style="opacity:0.982" fill="#010100" d="M 341.5,149.5 C 338.681,151.097 335.681,151.597 332.5,151C 315.916,134.208 295.916,124.041 272.5,120.5C 226.77,114.946 190.937,131.279 165,169.5C 144.085,206.978 144.418,244.312 166,281.5C 171.953,289.788 178.286,297.788 185,305.5C 201.497,328.505 210.664,354.172 212.5,382.5C 219.5,382.5 226.5,382.5 233.5,382.5C 228.449,359.698 223.449,336.865 218.5,314C 219,309.5 221.5,307 226,306.5C 228.923,306.795 231.257,308.129 233,310.5C 238.233,334.5 243.4,358.5 248.5,382.5C 253.167,382.5 257.833,382.5 262.5,382.5C 267.091,358.378 272.258,334.378 278,310.5C 281.319,305.97 285.319,305.304 290,308.5C 291.308,310.134 292.142,311.968 292.5,314C 291.102,318.422 290.102,322.922 289.5,327.5C 285.251,345.744 281.251,364.077 277.5,382.5C 284.5,382.5 291.5,382.5 298.5,382.5C 300.716,345.407 314.883,313.741 341,287.5C 365.437,250.487 367.937,211.987 348.5,172C 348.927,168.977 350.261,166.477 352.5,164.5C 355.649,164.211 358.649,164.711 361.5,166C 372.22,185.046 377.22,205.546 376.5,227.5C 413.502,227.333 450.502,227.5 487.5,228C 493.214,229.392 498.214,232.059 502.5,236C 506.626,240.6 509.626,245.766 511.5,251.5C 511.5,302.833 511.5,354.167 511.5,405.5C 507.27,417.559 498.937,425.393 486.5,429C 428.834,429.5 371.168,429.667 313.5,429.5C 312.368,458.618 298.034,477.785 270.5,487C 244.322,492.388 223.156,484.555 207,463.5C 199.312,450.896 196.146,437.23 197.5,422.5C 202.598,387.256 196.431,354.256 179,323.5C 169.667,310.833 160.333,298.167 151,285.5C 143.877,272.63 139.044,258.963 136.5,244.5C 118.512,243.167 100.179,242.5 81.5,242.5C 62.9969,242.5 44.6636,242.833 26.5,243.5C 21.2395,245.592 17.4062,249.259 15,254.5C 14.3333,303.833 14.3333,353.167 15,402.5C 17.5864,408.088 21.7531,411.921 27.5,414C 76.1667,414.333 124.833,414.667 173.5,415C 176.397,416.715 177.731,419.215 177.5,422.5C 177.556,425.561 176.222,427.728 173.5,429C 123.833,429.667 74.1667,429.667 24.5,429C 12.0629,425.393 3.72956,417.559 -0.5,405.5C -0.5,354.167 -0.5,302.833 -0.5,251.5C 2.98533,239.182 10.9853,231.349 23.5,228C 60.4985,227.5 97.4985,227.333 134.5,227.5C 135.691,171.925 161.691,133.091 212.5,111C 256.527,96.1915 296.86,102.858 333.5,131C 337.036,134.201 340.203,137.701 343,141.5C 343.718,144.407 343.218,147.074 341.5,149.5 Z"/></g>
<g><path style="opacity:1" fill="#fbe67b" d="M 272.5,120.5 C 322.943,147.721 344.11,190.388 336,248.5C 330.531,272.782 318.865,293.448 301,310.5C 297.304,316.344 293.47,322.011 289.5,327.5C 290.102,322.922 291.102,318.422 292.5,314C 292.142,311.968 291.308,310.134 290,308.5C 285.319,305.304 281.319,305.97 278,310.5C 272.258,334.378 267.091,358.378 262.5,382.5C 257.833,382.5 253.167,382.5 248.5,382.5C 243.4,358.5 238.233,334.5 233,310.5C 231.257,308.129 228.923,306.795 226,306.5C 221.5,307 219,309.5 218.5,314C 223.449,336.865 228.449,359.698 233.5,382.5C 226.5,382.5 219.5,382.5 212.5,382.5C 210.664,354.172 201.497,328.505 185,305.5C 178.286,297.788 171.953,289.788 166,281.5C 144.418,244.312 144.085,206.978 165,169.5C 190.937,131.279 226.77,114.946 272.5,120.5 Z"/></g>
<g><path style="opacity:1" fill="#fbe159" d="M 272.5,120.5 C 295.916,124.041 315.916,134.208 332.5,151C 335.681,151.597 338.681,151.097 341.5,149.5C 345.553,154.219 349.22,159.219 352.5,164.5C 350.261,166.477 348.927,168.977 348.5,172C 367.937,211.987 365.437,250.487 341,287.5C 314.883,313.741 300.716,345.407 298.5,382.5C 291.5,382.5 284.5,382.5 277.5,382.5C 281.251,364.077 285.251,345.744 289.5,327.5C 293.47,322.011 297.304,316.344 301,310.5C 318.865,293.448 330.531,272.782 336,248.5C 344.11,190.388 322.943,147.721 272.5,120.5 Z"/></g>
<g><path style="opacity:0.897" fill="#000000" d="M 55.5,148.5 C 64.1395,150.983 72.4728,154.317 80.5,158.5C 83.8447,162.085 84.3447,166.085 82,170.5C 80.1394,171.764 78.1394,172.764 76,173.5C 67.6592,170.413 59.4926,166.913 51.5,163C 47.2369,156.623 48.5702,151.789 55.5,148.5 Z"/></g>
<g><path style="opacity:0.897" fill="#000000" d="M 452.5,148.5 C 461.857,150.096 464.19,154.929 459.5,163C 451.507,166.913 443.341,170.413 435,173.5C 427.387,170.949 425.553,166.116 429.5,159C 437.257,155.451 444.924,151.951 452.5,148.5 Z"/></g>
<g><path style="opacity:1" fill="#040403" d="M 191.5,173.5 C 208.17,173.333 224.837,173.5 241.5,174C 246.899,175.199 251.566,177.699 255.5,181.5C 259.212,177.976 263.545,175.476 268.5,174C 285.167,173.333 301.833,173.333 318.5,174C 323.206,175.105 326.373,177.938 328,182.5C 328.667,209.167 328.667,235.833 328,262.5C 326.833,267.667 323.667,270.833 318.5,272C 286.459,272.116 254.459,272.283 222.5,272.5C 212.167,272.333 201.833,272.167 191.5,272C 186.901,270.402 184.068,267.235 183,262.5C 182.333,235.833 182.333,209.167 183,182.5C 184.688,178.315 187.521,175.315 191.5,173.5 Z"/></g>
<g><path style="opacity:1" fill="#fcf2c4" d="M 197.5,188.5 C 211.171,188.333 224.837,188.5 238.5,189C 243.667,190.167 246.833,193.333 248,198.5C 248.5,218.164 248.667,237.831 248.5,257.5C 231.5,257.5 214.5,257.5 197.5,257.5C 197.5,234.5 197.5,211.5 197.5,188.5 Z"/></g>
<g><path style="opacity:1" fill="#fcf6df" d="M 270.5,188.5 C 284.833,188.5 299.167,188.5 313.5,188.5C 313.5,211.5 313.5,234.5 313.5,257.5C 296.5,257.5 279.5,257.5 262.5,257.5C 262.333,237.497 262.5,217.497 263,197.5C 264.642,193.7 267.142,190.7 270.5,188.5 Z"/></g>
<g><path style="opacity:1" fill="#93ba54" d="M 26.5,243.5 C 44.6636,242.833 62.9969,242.5 81.5,242.5C 100.179,242.5 118.512,243.167 136.5,244.5C 99.9061,243.507 63.2395,243.173 26.5,243.5 Z"/></g>
<g><path style="opacity:1" fill="#c85a82" d="M 483.5,243.5 C 478.5,243.5 473.5,243.5 468.5,243.5C 437.093,243.175 405.76,243.508 374.5,244.5C 392.321,243.167 410.488,242.5 429,242.5C 447.336,242.5 465.503,242.833 483.5,243.5 Z"/></g>
<g><path style="opacity:1" fill="#b9ea6b" d="M 26.5,243.5 C 63.2395,243.173 99.9061,243.507 136.5,244.5C 139.044,258.963 143.877,272.63 151,285.5C 160.333,298.167 169.667,310.833 179,323.5C 196.431,354.256 202.598,387.256 197.5,422.5C 190.833,422.5 184.167,422.5 177.5,422.5C 177.731,419.215 176.397,416.715 173.5,415C 124.833,414.667 76.1667,414.333 27.5,414C 21.7531,411.921 17.5864,408.088 15,402.5C 14.3333,353.167 14.3333,303.833 15,254.5C 17.4062,249.259 21.2395,245.592 26.5,243.5 Z"/></g>
<g><path style="opacity:1" fill="#fc75a7" d="M 468.5,243.5 C 469.987,246.473 471.487,249.473 473,252.5C 473.667,302.833 473.667,353.167 473,403.5C 471.746,407.004 470.246,410.337 468.5,413.5C 416.833,413.5 365.167,413.5 313.5,413.5C 313.5,402.833 313.5,392.167 313.5,381.5C 315.384,350.322 327.218,323.656 349,301.5C 362.378,284.738 370.878,265.738 374.5,244.5C 405.76,243.508 437.093,243.175 468.5,243.5 Z"/></g>
<g><path style="opacity:1" fill="#fd5694" d="M 468.5,243.5 C 473.5,243.5 478.5,243.5 483.5,243.5C 489.326,245.152 493.493,248.819 496,254.5C 496.667,303.833 496.667,353.167 496,402.5C 493.414,408.592 488.914,412.259 482.5,413.5C 477.833,413.5 473.167,413.5 468.5,413.5C 470.246,410.337 471.746,407.004 473,403.5C 473.667,353.167 473.667,302.833 473,252.5C 471.487,249.473 469.987,246.473 468.5,243.5 Z"/></g>
<g><path style="opacity:1" fill="#040303" d="M 383.5,284.5 C 390.221,283.751 396.554,284.918 402.5,288C 406.682,292.349 411.015,296.515 415.5,300.5C 421.058,294.772 427.058,289.606 433.5,285C 453.022,282.526 462.189,291.026 461,310.5C 460.044,313.377 458.711,316.044 457,318.5C 452.984,322.348 449.151,326.348 445.5,330.5C 449.151,334.652 452.984,338.652 457,342.5C 463.971,353.893 462.471,364.06 452.5,373C 444.472,377.611 436.472,377.611 428.5,373C 424.318,368.651 419.985,364.485 415.5,360.5C 411.348,364.151 407.348,367.984 403.5,372C 388.311,380.88 377.144,377.38 370,361.5C 368.89,355.574 369.556,349.908 372,344.5C 376.682,339.985 381.182,335.319 385.5,330.5C 381.515,326.015 377.349,321.682 373,317.5C 365.651,302.898 369.151,291.898 383.5,284.5 Z"/></g>
<g><path style="opacity:1" fill="#030402" d="M 116.5,287.5 C 131.084,286.93 139.417,293.764 141.5,308C 141.727,312.077 140.893,315.91 139,319.5C 123.196,336.305 107.029,352.805 90.5,369C 82.6428,374.366 74.6428,374.7 66.5,370C 56.3333,361.167 46.8333,351.667 38,341.5C 32.646,329.52 35.146,319.686 45.5,312C 58.7964,307.154 69.4631,310.654 77.5,322.5C 88.3193,312.181 98.9859,301.681 109.5,291C 111.925,289.787 114.259,288.621 116.5,287.5 Z"/></g>
<g><path style="opacity:1" fill="#e9f0f1" d="M 386.5,299.5 C 388.857,299.337 391.19,299.503 393.5,300C 399.5,306 405.5,312 411.5,318C 414.634,318.79 417.634,318.457 420.5,317C 426.167,311.333 431.833,305.667 437.5,300C 445.246,299.077 447.746,302.243 445,309.5C 439.333,315.167 433.667,320.833 428,326.5C 427.333,329.167 427.333,331.833 428,334.5C 434,340.5 440,346.5 446,352.5C 447.167,359.333 444.333,362.167 437.5,361C 431.833,355.333 426.167,349.667 420.5,344C 417.634,342.543 414.634,342.21 411.5,343C 405.833,348.667 400.167,354.333 394.5,360C 386.6,363.431 383.433,360.931 385,352.5C 390.667,346.833 396.333,341.167 402,335.5C 404,332.167 404,328.833 402,325.5C 395.08,319.252 388.914,312.419 383.5,305C 384.124,302.915 385.124,301.082 386.5,299.5 Z"/></g>
<g><path style="opacity:1" fill="#789cab" d="M 118.5,302.5 C 125.314,302.49 127.814,305.823 126,312.5C 110.805,328.029 95.3047,343.196 79.5,358C 76.788,358.738 74.4547,358.071 72.5,356C 64.6355,348.47 57.1355,340.636 50,332.5C 49.3654,326.219 52.1987,323.719 58.5,325C 63.5318,330.367 68.8651,335.367 74.5,340C 76.5,340.667 78.5,340.667 80.5,340C 93.6724,327.994 106.339,315.494 118.5,302.5 Z"/></g>
<g><path style="opacity:1" fill="#41555d" d="M 213.5,397.5 C 213.5,402.833 213.5,408.167 213.5,413.5C 234.167,413.5 254.833,413.5 275.5,413.5C 282.833,413.5 290.167,413.5 297.5,413.5C 297.5,408.167 297.5,402.833 297.5,397.5C 298.489,402.975 298.822,408.642 298.5,414.5C 269.833,414.5 241.167,414.5 212.5,414.5C 212.178,408.642 212.511,402.975 213.5,397.5 Z"/></g>
<g><path style="opacity:1" fill="#668c97" d="M 275.5,397.5 C 282.833,397.5 290.167,397.5 297.5,397.5C 297.5,402.833 297.5,408.167 297.5,413.5C 290.167,413.5 282.833,413.5 275.5,413.5C 275.5,408.167 275.5,402.833 275.5,397.5 Z"/></g>
<g><path style="opacity:1" fill="#7ba0b0" d="M 213.5,397.5 C 234.167,397.5 254.833,397.5 275.5,397.5C 275.5,402.833 275.5,408.167 275.5,413.5C 254.833,413.5 234.167,413.5 213.5,413.5C 213.5,408.167 213.5,402.833 213.5,397.5 Z"/></g>
<g><path style="opacity:1" fill="#8e415d" d="M 313.5,381.5 C 313.5,392.167 313.5,402.833 313.5,413.5C 365.167,413.5 416.833,413.5 468.5,413.5C 473.167,413.5 477.833,413.5 482.5,413.5C 426.002,414.499 369.336,414.832 312.5,414.5C 312.172,403.321 312.505,392.321 313.5,381.5 Z"/></g>
<g><path style="opacity:1" fill="#374950" d="M 297.5,435.5 C 297.5,433.5 297.5,431.5 297.5,429.5C 290.167,429.5 282.833,429.5 275.5,429.5C 254.833,429.5 234.167,429.5 213.5,429.5C 213.5,431.5 213.5,433.5 213.5,435.5C 212.532,433.393 212.198,431.059 212.5,428.5C 241.167,428.5 269.833,428.5 298.5,428.5C 298.802,431.059 298.468,433.393 297.5,435.5 Z"/></g>
<g><path style="opacity:1" fill="#7ba0b0" d="M 275.5,429.5 C 275.754,434.97 275.087,440.304 273.5,445.5C 254.155,445.833 234.822,445.5 215.5,444.5C 214.358,441.601 213.692,438.601 213.5,435.5C 213.5,433.5 213.5,431.5 213.5,429.5C 234.167,429.5 254.833,429.5 275.5,429.5 Z"/></g>
<g><path style="opacity:1" fill="#668c97" d="M 275.5,429.5 C 282.833,429.5 290.167,429.5 297.5,429.5C 297.5,431.5 297.5,433.5 297.5,435.5C 297.6,438.667 296.933,441.667 295.5,444.5C 288.197,445.497 280.863,445.831 273.5,445.5C 275.087,440.304 275.754,434.97 275.5,429.5 Z"/></g>
<g><path style="opacity:1" fill="#7a9eae" d="M 247.5,472.5 C 239.705,471.269 233.038,467.936 227.5,462.5C 239.66,461.34 251.993,461.173 264.5,462C 261.833,466 258.5,469.333 254.5,472C 252.19,472.497 249.857,472.663 247.5,472.5 Z"/></g>
<g><path style="opacity:1" fill="#61848f" d="M 247.5,472.5 C 249.857,472.663 252.19,472.497 254.5,472C 258.5,469.333 261.833,466 264.5,462C 251.993,461.173 239.66,461.34 227.5,462.5C 226.711,462.217 226.044,461.717 225.5,461C 245.5,460.333 265.5,460.333 285.5,461C 274.606,471.052 261.939,474.886 247.5,472.5 Z"/></g>
</svg>
