<?xml version="1.0" encoding="UTF-8"?>
<!DOCTYPE svg PUBLIC "-//W3C//DTD SVG 1.1//EN" "http://www.w3.org/Graphics/SVG/1.1/DTD/svg11.dtd">
<svg xmlns="http://www.w3.org/2000/svg" version="1.1" width="512px" height="512px" style="shape-rendering:geometricPrecision; text-rendering:geometricPrecision; image-rendering:optimizeQuality; fill-rule:evenodd; clip-rule:evenodd" xmlns:xlink="http://www.w3.org/1999/xlink">
<g><path style="opacity:0.966" fill="#010100" d="M 474.5,59.5 C 473.833,59.8333 473.167,60.1667 472.5,60.5C 469.927,61.5552 467.261,61.7218 464.5,61C 434.325,39.1561 402.658,36.8228 369.5,54C 331.142,80.0719 319.309,115.239 334,159.5C 339.704,173.359 348.537,184.693 360.5,193.5C 385.342,212.693 412.676,216.86 442.5,206C 477.166,190.654 495.166,163.987 496.5,126C 496.66,115.796 494.827,105.962 491,96.5C 488.224,91.2821 485.724,85.9488 483.5,80.5C 484.071,77.6873 485.404,75.354 487.5,73.5C 491.421,71.8483 494.921,72.515 498,75.5C 504.616,87.1929 509.116,99.5262 511.5,112.5C 511.5,122.167 511.5,131.833 511.5,141.5C 499.668,194.321 466.668,222.987 412.5,227.5C 407.859,226.769 403.193,226.436 398.5,226.5C 398.985,286.212 398.485,345.879 397,405.5C 393.345,413.822 387.178,419.322 378.5,422C 363.544,423.396 348.544,423.896 333.5,423.5C 333.667,441.503 333.5,459.503 333,477.5C 332.015,481.666 329.348,483.666 325,483.5C 322.456,483.616 320.289,482.783 318.5,481C 298.5,462 278.5,443 258.5,424C 252.086,423.871 245.753,423.204 239.5,422C 237.081,420.491 236.081,418.325 236.5,415.5C 236.544,411.91 238.211,409.41 241.5,408C 248.5,407.333 255.5,407.333 262.5,408C 280.996,423.997 298.996,440.497 316.5,457.5C 316.56,458.043 316.893,458.376 317.5,458.5C 318.499,443.181 318.833,427.848 318.5,412.5C 318.916,410.248 320.249,408.748 322.5,408C 335.829,407.5 349.163,407.333 362.5,407.5C 367.267,407.809 371.934,407.309 376.5,406C 379.728,404.437 381.895,401.937 383,398.5C 383.833,339.83 383.667,281.164 382.5,222.5C 351.63,211.629 330.297,190.963 318.5,160.5C 242.17,159.5 165.836,159.167 89.5,159.5C 86.067,157.99 84.067,155.324 83.5,151.5C 83.8386,148.331 85.5052,146.164 88.5,145C 163.499,144.5 238.499,144.333 313.5,144.5C 307.854,92.602 328.521,55.7687 375.5,34C 411.544,21.4807 444.711,26.6474 475,49.5C 477.123,52.985 476.956,56.3183 474.5,59.5 Z"/></g>
<g><path style="opacity:1" fill="#fdde7c" d="M 472.5,60.5 C 477.293,71.0477 480.793,82.0477 483,93.5C 486.601,137.869 468.767,170.369 429.5,191C 406.747,199.89 383.747,200.724 360.5,193.5C 348.537,184.693 339.704,173.359 334,159.5C 319.309,115.239 331.142,80.0719 369.5,54C 402.658,36.8228 434.325,39.1561 464.5,61C 467.261,61.7218 469.927,61.5552 472.5,60.5 Z"/></g>
<g><path style="opacity:1" fill="#fccd63" d="M 474.5,59.5 C 479.54,63.539 483.873,68.2056 487.5,73.5C 485.404,75.354 484.071,77.6873 483.5,80.5C 485.724,85.9488 488.224,91.2821 491,96.5C 494.827,105.962 496.66,115.796 496.5,126C 495.166,163.987 477.166,190.654 442.5,206C 412.676,216.86 385.342,212.693 360.5,193.5C 383.747,200.724 406.747,199.89 429.5,191C 468.767,170.369 486.601,137.869 483,93.5C 480.793,82.0477 477.293,71.0477 472.5,60.5C 473.167,60.1667 473.833,59.8333 474.5,59.5 Z"/></g>
<g><path style="opacity:1" fill="#040402" d="M 404.5,62.5 C 435.854,62.0186 450.687,77.3519 449,108.5C 444.792,123.877 434.959,133.21 419.5,136.5C 419.666,145.839 419.5,155.173 419,164.5C 416.928,169.143 413.428,170.643 408.5,169C 406.951,167.786 405.785,166.286 405,164.5C 404.333,152.167 404.333,139.833 405,127.5C 407.619,124.111 411.119,122.611 415.5,123C 430.644,118.89 436.811,109.057 434,93.5C 426.681,78.0585 415.181,73.8918 399.5,81C 392.397,86.3737 388.897,93.5404 389,102.5C 384.748,108.653 380.081,108.986 375,103.5C 373.511,88.9808 378.677,77.4808 390.5,69C 395.034,66.3327 399.7,64.166 404.5,62.5 Z"/></g>
<g><path style="opacity:0.969" fill="#000100" d="M 64.5,151.5 C 64.1226,154.508 62.7893,157.008 60.5,159C 48.5,159.333 36.5,159.667 24.5,160C 20.2116,161.564 17.045,164.397 15,168.5C 14.3333,245.167 14.3333,321.833 15,398.5C 16.4421,402.275 18.9421,405.108 22.5,407C 85.5,407.333 148.5,407.667 211.5,408C 214.59,409.707 216.59,412.207 217.5,415.5C 216.728,419.439 214.395,421.939 210.5,423C 148.833,423.667 87.1667,423.667 25.5,423C 12.5186,421.507 3.85197,414.674 -0.5,402.5C -0.5,323.167 -0.5,243.833 -0.5,164.5C 3.16655,154.007 10.4999,147.507 21.5,145C 34.1667,144.333 46.8333,144.333 59.5,145C 62.5341,146.191 64.2007,148.358 64.5,151.5 Z"/></g>
<g><path style="opacity:1" fill="#b2e49e" d="M 64.5,151.5 C 70.8333,151.5 77.1667,151.5 83.5,151.5C 84.067,155.324 86.067,157.99 89.5,159.5C 159.998,160.499 230.665,160.833 301.5,160.5C 311.137,191.971 330.47,215.471 359.5,231C 362.944,234.111 365.111,237.944 366,242.5C 366.667,295.167 366.667,347.833 366,400.5C 364.82,402.86 363.653,405.193 362.5,407.5C 349.163,407.333 335.829,407.5 322.5,408C 320.249,408.748 318.916,410.248 318.5,412.5C 317.833,427.5 317.167,442.5 316.5,457.5C 298.996,440.497 280.996,423.997 262.5,408C 255.5,407.333 248.5,407.333 241.5,408C 238.211,409.41 236.544,411.91 236.5,415.5C 230.167,415.5 223.833,415.5 217.5,415.5C 216.59,412.207 214.59,409.707 211.5,408C 148.5,407.667 85.5,407.333 22.5,407C 18.9421,405.108 16.4421,402.275 15,398.5C 14.3333,321.833 14.3333,245.167 15,168.5C 17.045,164.397 20.2116,161.564 24.5,160C 36.5,159.667 48.5,159.333 60.5,159C 62.7893,157.008 64.1226,154.508 64.5,151.5 Z"/></g>
<g><path style="opacity:1" fill="#91d09f" d="M 89.5,159.5 C 165.836,159.167 242.17,159.5 318.5,160.5C 330.297,190.963 351.63,211.629 382.5,222.5C 383.667,281.164 383.833,339.83 383,398.5C 381.895,401.937 379.728,404.437 376.5,406C 371.934,407.309 367.267,407.809 362.5,407.5C 363.653,405.193 364.82,402.86 366,400.5C 366.667,347.833 366.667,295.167 366,242.5C 365.111,237.944 362.944,234.111 359.5,231C 330.47,215.471 311.137,191.971 301.5,160.5C 230.665,160.833 159.998,160.499 89.5,159.5 Z"/></g>
<g><path style="opacity:1" fill="#12100a" d="M 409.5,178.5 C 416.657,178.155 419.824,181.488 419,188.5C 414.99,194.644 410.656,194.977 406,189.5C 404.663,184.916 405.829,181.249 409.5,178.5 Z"/></g>
<g><path style="opacity:1" fill="#030402" d="M 83.5,236.5 C 113.309,232.848 132.809,245.181 142,273.5C 144.518,287.171 142.018,299.838 134.5,311.5C 137.521,314.686 140.354,318.02 143,321.5C 143.717,328.572 140.55,331.739 133.5,331C 130.02,328.354 126.686,325.521 123.5,322.5C 96.0445,338.496 72.8778,333.83 54,308.5C 39.9301,274.518 49.7635,250.518 83.5,236.5 Z"/></g>
<g><path style="opacity:1" fill="#060705" d="M 166.5,236.5 C 170.603,235.769 174.103,236.769 177,239.5C 177.033,261.23 177.699,282.897 179,304.5C 184.541,314.684 193.041,318.518 204.5,316C 210.866,314.297 215.366,310.464 218,304.5C 219.301,282.897 219.967,261.23 220,239.5C 224.333,235.5 228.667,235.5 233,239.5C 234.643,260.411 234.977,281.411 234,302.5C 230.298,318.867 220.132,328.367 203.5,331C 188.082,332.708 175.915,327.208 167,314.5C 165.382,310.932 164.049,307.265 163,303.5C 162.333,282.833 162.333,262.167 163,241.5C 163.997,239.677 165.164,238.01 166.5,236.5 Z"/></g>
<g><path style="opacity:1" fill="#060705" d="M 255.5,236.5 C 258.187,236.336 260.854,236.503 263.5,237C 264.701,237.903 265.535,239.069 266,240.5C 266.667,269.5 266.667,298.5 266,327.5C 260.919,332.986 256.252,332.653 252,326.5C 251.333,298.167 251.333,269.833 252,241.5C 252.997,239.677 254.164,238.01 255.5,236.5 Z"/></g>
<g><path style="opacity:1" fill="#040604" d="M 288.5,235.5 C 306.836,235.333 325.17,235.5 343.5,236C 349.976,239.034 351.143,243.534 347,249.5C 332.127,271.41 317.627,293.577 303.5,316C 317.5,316.333 331.5,316.667 345.5,317C 351.653,321.252 351.986,325.919 346.5,331C 326.5,331.667 306.5,331.667 286.5,331C 282.443,329.053 280.943,325.886 282,321.5C 297.364,298.301 312.53,274.968 327.5,251.5C 314.179,250.667 300.846,250.167 287.5,250C 282.003,244.683 282.336,239.85 288.5,235.5 Z"/></g>
<g><path style="opacity:1" fill="#b0e29d" d="M 89.5,250.5 C 107.63,249.81 120.13,257.81 127,274.5C 127.667,280.5 127.667,286.5 127,292.5C 126.044,295.377 124.711,298.044 123,300.5C 119.438,295.754 114.938,292.42 109.5,290.5C 104.062,291.711 101.895,295.044 103,300.5C 105.98,304.314 109.146,307.981 112.5,311.5C 96.8774,319.737 82.7107,317.737 70,305.5C 61.2471,293.127 60.2471,280.127 67,266.5C 72.5511,258.318 80.0511,252.985 89.5,250.5 Z"/></g>
<g><path style="opacity:1" fill="#252f21" d="M 318.5,412.5 C 318.833,427.848 318.499,443.181 317.5,458.5C 316.893,458.376 316.56,458.043 316.5,457.5C 317.167,442.5 317.833,427.5 318.5,412.5 Z"/></g>
</svg>
